<?xml version="1.0" encoding="UTF-8"?><svg id="Lag_2" xmlns="http://www.w3.org/2000/svg" viewBox="0 0 1129.95 284.49"><defs><style>.cls-1,.cls-2{fill:#fff;}.cls-3{letter-spacing:-.07em;}.cls-4{letter-spacing:-.03em;}.cls-2{font-family:Arial-Black, 'Arial Black';font-size:127.56px;font-weight:800;stroke:#fff;stroke-miterlimit:10;stroke-width:2.83px;}</style></defs><g id="Lag_1-2"><g><g><path class="cls-1" d="M1129.84,151.01c0-1.48-.29-3.06-.79-4.54-.1-.29-.21-.59-.32-.87-.12-.29-.24-.57-.37-.85-.13-.27-.27-.54-.42-.8-2.67-4.75-7.4-5.47-12.42-5.46-46.45,.04-92.9,.02-139.35,.03-1.07,0-2.15,.06-3.22,.17-6.77,.67-10.8,5.05-10.8,11.86-.01,30.42-.04,60.83,.06,91.25,0,2.05,.56,4.3,1.53,6.1,2.54,4.75,7.08,6.05,12.13,6.06,14.6,.01,29.21,0,43.81,0h3.92v16.95c-1.66,0-3.08-.03-4.49,0-1.55,.03-3.12,0-4.65,.2-4.46,.61-6.82,4.23-5.68,8.52,.92,3.45,3.11,4.82,8.1,4.82,19.4,.03,38.79,.01,58.18,0,1.19,0,2.49,.09,3.55-.34,1.34-.55,2.84-1.34,3.64-2.47,3.15-4.48,.63-9.95-4.84-10.5-2.91-.29-5.87-.06-8.87-.06v-17.13h4.35c14.49,0,28.97,.05,43.45-.02,8.49-.04,13.52-4.68,13.55-12.75,.09-30.06,.08-60.12-.04-90.18Zm-55.2,123.19c.47,0,.96-.03,1.43,.01,2.23,.22,4.08,1.02,4.02,3.61-.05,2.56-1.78,3.44-4.11,3.44-4.43,0-8.86,0-13.28,0h-16.51c-9.57,0-19.14,0-28.72-.01-1.06,0-2.37,.2-3.14-.32-1.06-.7-2.34-1.97-2.39-3.04-.05-1.04,1.15-2.44,2.17-3.13,.88-.59,2.29-.54,3.46-.54,19.02-.03,38.05-.03,57.07-.03Zm-47.16-3.5v-16.59h37.27v16.59h-37.27Zm98.94-27.05c-.72,4.52-4.26,6.83-9.52,6.84-25.24,0-50.49,0-75.73,0-21.54,0-43.07,0-64.61,0-8.27,0-11.14-2.89-11.17-11.21,0-1.64,0-3.28,0-5.08h161.14c0,3.14,.4,6.36-.09,9.45Zm.24-16.99v3.7h-160.97v-55.73c4.56,0,8.98,.13,13.39-.09,1.35-.06,2.66-1.09,3.99-1.67-1.41-.58-2.8-1.57-4.23-1.64-4.29-.22-8.6-.08-13.19-.08v-6.66c4.1,0,8.03,0,11.96,0,.84,0,1.77,.23,2.49-.06,1.06-.42,1.96-1.22,2.93-1.86-1.07-.51-2.12-1.44-3.2-1.47-4.65-.17-9.32-.07-14.23-.07v-6.82c7.67,0,15.18,.09,22.68-.06,1.73-.04,4.36,1.3,4.8-1.8,.04-.24-3.08-1.31-4.74-1.34-7.52-.15-15.04-.06-22.55-.06-.23-5.39,2.85-8.87,7.92-9.2,.96-.06,1.91-.01,2.87-.01h139.31c7.61,0,10.73,3.06,10.73,10.53,0,24.8,0,49.61,0,74.41Z"/><path class="cls-1" d="M1046.61,201.86c.77,1.01,1.14,1.6,1.62,2.1,1.24,1.29,2.51,2.55,3.79,3.81,2.01,1.97,2,3.91-.02,5.86-.43,.41-.84,.85-1.26,1.27-4.42,4.42-5.03,4.42-9.47,0-.42-.42-.78-.96-1.28-1.24-1.04-.6-2.15-1.06-3.24-1.58-.47,1.2-1.11,2.36-1.37,3.61-.24,1.14,0,2.38-.09,3.57-.18,2.23-1.3,3.53-3.7,3.41-.36-.02-.72,0-1.08,0-7.67,.08-7.62,.08-7.95-7.46-.05-1.07-.73-2.5-1.57-3.02-.54-.33-1.94,.68-2.93,1.12-.2,.09-.35,.32-.52,.49-5.57,5.68-5.17,6.47-11.9-.47-1.72-1.78-1.72-3.55,.04-5.3,1.35-1.35,2.82-2.61,4-4.1,.53-.67,.8-1.91,.56-2.7-.19-.63-1.31-1.02-2.07-1.43-.28-.15-.71-.02-1.06-.03-7.37-.15-8.93-1.99-7.3-9.29,.27-1.19,2.01-2.34,3.34-2.92,1.11-.49,2.62,.06,3.9-.17,1.14-.2,2.72-.57,3.14-1.36,.36-.68-.45-2.23-1.11-3.12-.98-1.33-2.34-2.38-3.45-3.63-1.57-1.78-1.72-3.6,.1-5.35,.17-.17,.34-.34,.51-.51,5.48-5.73,5.5-5.68,11.21-.19,.98,.95,2.51,1.33,3.78,1.98,.47-1.33,1.31-2.65,1.35-3.99,.18-6.02,5.44-9.19,10.85-6.25,.88,.48,1.44,1.8,1.81,2.85,.3,.85-.04,1.91,.14,2.83,.29,1.52,.77,3,1.17,4.49,1.46-.74,2.98-1.37,4.35-2.25,.89-.57,1.57-1.46,2.3-2.24,1.99-2.09,3.92-1.93,5.85,.09,.66,.69,1.35,1.35,2.03,2.03,3.42,3.43,3.43,4.21,.07,7.58-1.01,1.02-2.14,1.94-3,3.07-.47,.63-.9,1.82-.61,2.36,.4,.75,1.47,1.21,2.32,1.64,.38,.19,.94,.03,1.42,.04,6.55,.05,9.24,4,6.66,10.14-.42,1-2.03,1.83-3.24,2.1-1.59,.36-3.38-.14-4.99,.18-1.05,.21-1.93,1.22-3.09,2Zm-.21,12.53c1.02-1.08,2.22-2.36,4.14-4.39-2.04-1.69-4.18-3.1-5.8-4.95-.79-.9-1.02-2.68-.83-3.96,.55-3.62,2.74-5.25,6.53-4.63,1.35,.22,2.77,.04,4.23,.04v-5.79c-1.44,0-2.74,.12-4.02-.03-2.15-.26-4.55,.98-6.05-2.26-1.66-3.58-1.21-6.03,1.89-8.19,1.37-.96,2.78-1.86,4.17-2.79-.41-.23-.82-.46-1.24-.69-1.06-1.4-2.12-2.8-3.52-4.65-2.07,2.27-3.69,4.02-5.27,5.8-1.23,1.39-2.56,2.08-4.34,.92-1.82-1.19-4.94-.95-4.5-4.52,.25-2.06,.05-4.17,.05-6.29h-5.74c0,2.2-.2,4.22,.04,6.19,.44,3.54-2.55,3.41-4.45,4.54-1.76,1.05-3.08,.71-4.36-.79-1.61-1.87-3.33-3.64-5.05-5.51-1.79,1.67-3.07,2.86-5.03,4.69,2.21,1.87,4.32,3.3,5.93,5.16,.77,.9,1.11,2.77,.75,3.91-.62,1.93-.65,4.76-4.02,4.52-2.2-.15-4.41-.03-6.59-.03v5.81c2.33,0,4.47,.1,6.59-.02,3.35-.2,3.35,2.63,3.98,4.56,.38,1.16,.13,3.09-.64,3.94-1.73,1.89-3.96,3.32-5.99,4.93,.24,.32-.44-.2,0,0,1.02,1.42,3.36,3.45,4.06,4.43,4.23-1.36,4.68-6.87,9.62-6.14,6.99,1.04,4.75,6.62,5.28,10.95h5.47c.64-4.21-1.78-9.65,4.93-10.89,5.13-.95,5.63,4.75,9.77,6.11Z"/><path class="cls-1" d="M1087.14,167.78c1.07-.25,1.57-.28,1.99-.47,2.95-1.38,4.54-.6,5.5,2.65,.88,2.97,.72,4.78-2.7,5.52-.99,.21-1.8,1.21-2.69,1.84,.83,.85,1.52,1.95,2.52,2.5,3.94,2.17,4.49,5.36,.95,8.26-.81,.67-2.75,.14-4.13-.07-1.41-.22-2.78-.74-4.16-1.12,.06,1.41-.2,2.92,.24,4.2,1,2.92-.52,3.85-2.9,4.54-2.25,.66-4.48,1.67-5.4-1.71-.22-.8-.4-1.64-.8-2.36-.94-1.69-2.08-1.86-3.21-.14-.33,.49-.55,1.05-.82,1.58-2.01,3.88-2.41,3.88-6.27,2.17-3.27-1.45-3.05-3.32-1.56-5.94,.61-1.08,.54-2.55,.79-3.85-1.31,.1-2.74-.09-3.92,.36-3.06,1.18-4.07-.45-4.86-2.92-.8-2.51-1.28-4.62,2.23-5.46,1.2-.29,2.2-1.41,3.29-2.15-1-.86-1.86-2.06-3.01-2.53-3.21-1.29-3.62-2.98-2.08-6.06,1.66-3.32,3.52-3.24,6.27-1.63,1.01,.59,2.38,.57,3.59,.82-.03-1.19,.25-2.5-.14-3.56-1.2-3.2,.2-4.42,3.11-5.41,2.97-1.01,4.47-.37,5.3,2.62,.3,1.09,1.28,1.99,1.94,2.97,.83-.87,1.88-1.62,2.44-2.64,2.12-3.87,6.08-4.47,8.4-.73,.75,1.2-.7,3.75-1.12,5.69-.16,.74-.53,1.64-.26,2.21,.25,.53,1.23,.71,1.47,.83Zm5.49,15.99c-1.37-3.19-5.86-1.72-5.97-5.99-.12-4.59,4.03-3.52,6.27-5.39-.39-1.12-.8-2.27-1.15-3.27-2.76-.32-4.86,2.78-7.59,.02-3.52-3.55,1.12-5.7,.94-8.91-.96-.46-2.06-1-2.74-1.33-2.84,1.75-1.79,6.17-6.43,5.89-4.31-.27-2.67-4.2-4.93-6.04-.94,.3-2.12,.68-3.08,.98-.47,2.8,2.97,4.99-.31,7.78-3.67,3.12-5.46-1.43-8.66-1.11-.41,.85-.94,1.96-1.34,2.81,1.59,2.71,5.79,1.63,5.96,5.8,.2,4.7-4.18,3.3-6.15,5.42,.39,1.09,.8,2.24,.88,2.47,3.02,.24,5.8-.34,7.47,.76,4.35,2.84-.8,5.64-.66,8.8,1.03,.48,2.15,.99,2.89,1.33,2.69-1.61,1.53-5.61,5.47-5.9,4.76-.36,3.85,3.91,5.6,6.19,1.16-.41,2.26-.8,3.27-1.16,.37-2.75-2.9-5.34,.5-7.96,3.5-2.71,5.32,1.61,8.4,1.29,.42-.78,.98-1.8,1.35-2.48Z"/><path class="cls-1" d="M1018.13,193.64c0-6.1,4.85-10.81,11.01-10.73,5.97,.08,10.62,4.8,10.61,10.76,0,5.8-4.88,10.77-10.65,10.88-5.89,.11-10.98-4.95-10.97-10.91Zm18.13,.02c0-4.21-3.28-7.52-7.41-7.48-4.09,.04-7.39,3.49-7.32,7.63,.07,3.98,3.32,7.23,7.3,7.29,4.16,.06,7.43-3.21,7.43-7.44Z"/><path class="cls-1" d="M1075.17,168.89c4.16,0,7.55,3.36,7.56,7.48,0,4.04-3.5,7.55-7.55,7.56-4.02,0-7.49-3.49-7.49-7.57,0-4.19,3.29-7.47,7.48-7.47Zm-.03,12.79c2.65,.06,5.32-2.49,5.41-5.17,.09-2.61-2.44-5.27-5.15-5.42-2.77-.15-5.32,2.16-5.46,4.96-.15,2.93,2.28,5.56,5.21,5.63Z"/></g><path class="cls-1" d="M901.88,203.6l-16.2-6.58-.14-.05c-13.02-5.16-13.02-8.71-13.02-10.24,0-5.98,7.86-9.12,15.62-9.12,8.83,0,17.4,3.38,24.76,9.75l20.77-24.01c-13.22-11.44-28.97-17.49-45.54-17.49-27.01,0-47.37,17.58-47.37,40.87,0,17.67,11.11,31.04,33.03,39.72l16.3,6.62c11.83,4.7,11.83,7.49,11.83,9.74,0,9.45-14.54,9.93-17.46,9.93h-40.43v22.87c-5.19,0-20.72,.35-25.45-.15-2.25-.24-5.01-1.57-6.35-3.31-5.16-6.66-9.77-13.73-14.72-20.55-4.2-5.79-8.58-11.45-12.07-16.07,6.34-5.42,12.98-9.71,17.77-15.51,7.82-9.5,8.84-21.35,8.5-33.28-.74-25.16-12.62-40.42-37.75-42.77-25.82-2.42-51.94-1.62-77.93-2.21-.28,0-.56,.31-1.42,.83v133.02c-8.03,0-15.48,.2-22.91-.13-1.93-.09-4.41-1.34-5.58-2.87-8.69-11.42-17.18-23-25.61-34.62-7.83-10.79-15.49-21.7-23.32-32.67,19.1-21.2,37.9-42.07,57.38-63.69-13.26,0-25.19-.1-37.12,.11-1.68,.03-3.73,1.2-4.94,2.48-9.64,10.24-19.11,20.63-28.64,30.97-7.58,8.22-15.19,16.4-23.86,25.77v-59.01h-32.26v133.65c-9.76,0-19.03,.12-28.29-.13-1.4-.04-3.13-1.57-4.07-2.88-6.22-8.55-12.21-17.27-18.4-25.84-3.02-4.18-6.31-8.19-9.8-12.67,12.37-4.71,20.6-12.59,24.54-24.49,4.03-12.24,4.18-24.7,1.02-37.09-2.51-9.83-7.74-18.39-17.23-22.44-8.23-3.53-17.22-6.69-26.03-7.16-23.31-1.24-46.7-.94-70.07-1.22-.45,0-.9,.26-1.83,.55v133.06h-62.25c47.07-31.71,40.53-87.87,14.71-114.17-29.1-29.64-80.55-30.46-110.12-.73-14.97,15.05-21.69,33.22-21.24,54.15,.56,26.3,13.37,45.79,35.1,60.68h-88.91c15.77-44.65,31.38-88.86,47.17-133.59-10.67,0-20.6,.16-30.52-.09-3.37-.08-4.83,.89-5.92,4.14-6.09,18.11-12.46,36.13-18.74,54.17-2.7,7.75-5.44,15.47-8.59,24.46-8.77-28.48-17.13-55.61-25.46-82.68-10.45,0-20.23,.1-30-.06-2.86-.05-3.95,.94-4.76,3.63-4.43,14.84-9.1,29.6-13.7,44.38-3.44,11.05-6.89,22.1-10.73,34.4-1.08-2.78-1.69-4.24-2.21-5.75-8.32-24.14-16.61-48.29-25.02-72.4-.56-1.58-2.13-3.98-3.29-4.01-10.71-.31-21.44-.18-33.09-.18,15.86,44.96,31.47,89.2,47.3,134.1H1.11v8.65c23.74,0,47.1-.06,70.47,.06,2.97,.02,3.45-1.61,4.13-3.79,5.81-18.37,11.73-36.7,17.57-55.07,4.1-12.89,8.15-25.79,12.6-39.92,10.8,33.68,21.2,66.07,31.58,98.37H429.89v-44.26c7.18,0,13.93-.12,20.68,.11,1.16,.03,2.59,1.26,3.36,2.33,9.29,12.83,18.53,25.67,27.62,38.63,1.79,2.56,3.62,3.64,6.86,3.62,29.02-.14,58.03-.07,87.05-.09,1.43,0,2.87-.17,4.6-.28,0-12.09,0-23.8,.02-35.51,0-1.45-.32-3.41,.46-4.29,4.51-5.15,9.3-10.04,14.04-15.08,5.02,6.2,9.81,11.86,14.3,17.75,8.51,11.16,16.98,22.37,25.19,33.77,1.98,2.74,3.98,3.73,7.31,3.71,26.87-.13,53.72-.07,80.58-.08,1.59,0,3.19-.15,5.3-.26v-44.36c5.03,0,9.58,.52,13.96-.12,6.78-.98,10.54,2.43,13.97,7.48,7.81,11.46,15.95,22.7,23.79,34.15,1.57,2.31,3.23,3.21,6.02,3.18,14.92-.13,29.84-.05,44.76-.08,1.25,0,12.88,.1,14.28,.1h40.43c33.81,0,49.2-21.61,49.2-41.67,0-26.52-23.86-36.06-31.79-39.21Zm-618.13,52.89c-16.1-4.61-26.82-15.24-30.52-31.92-4.39-19.8,.79-36.84,16.54-49.74,19.5-15.97,49.48-8.87,61.51,13.98,4.27,8.1,6.04,14.98,6.1,23.66,.7,30.77-27.12,51.62-53.63,44.02Zm181.06-45.68c-11.35,.8-22.8,.18-34.62,.18v-40.77c11.98,0,23.61-.7,35.11,.2,12.11,.94,16.78,7.01,16.8,19.06,.03,12.61-5.8,20.53-17.29,21.33Zm297.12,0c-11.34,.8-22.77,.17-34.54,.17v-40.76c11.88,0,23.49-.71,34.98,.2,12.27,.96,16.7,6.96,16.57,19.55-.13,12.72-5.5,20.02-17.01,20.84Z"/></g><text class="cls-2" transform="translate(142.12 110.86)"><tspan class="cls-4" x="0" y="0">W</tspan><tspan x="124.26" y="0">elcome </tspan><tspan class="cls-3" x="677.16" y="0">T</tspan><tspan x="760.62" y="0">o</tspan></text></g></svg>