<?xml version="1.0" encoding="UTF-8"?><svg id="Lag_2" xmlns="http://www.w3.org/2000/svg" viewBox="0 0 937.64 146.62"><defs><style>.cls-1{fill:#fff;}</style></defs><g id="Lag_1-2"><path class="cls-1" d="M905.71,65.39l-16.27-6.61-.14-.05c-13.08-5.18-13.08-8.75-13.08-10.28,0-6.01,7.89-9.16,15.69-9.16,8.87,0,17.47,3.39,24.87,9.79l20.86-24.11c-13.28-11.49-29.09-17.56-45.73-17.56-27.12,0-47.57,17.65-47.57,41.04,0,17.75,11.16,31.17,33.17,39.89l16.37,6.65c11.88,4.72,11.88,7.52,11.88,9.78,0,9.49-14.6,9.97-17.53,9.97h-40.6v22.97c-5.21,0-20.81,.35-25.56-.15-2.26-.24-5.03-1.58-6.38-3.32-5.18-6.69-9.81-13.79-14.78-20.64-4.22-5.81-8.62-11.5-12.12-16.14,6.37-5.44,13.04-9.75,17.85-15.58,7.85-9.54,8.88-21.44,8.54-33.42-.74-25.27-12.67-40.59-37.91-42.95-25.93-2.43-52.16-1.63-78.26-2.22-.28,0-.56,.31-1.43,.83V137.71c-8.06,0-15.55,.2-23.01-.13-1.94-.09-4.43-1.35-5.6-2.88-8.73-11.47-17.25-23.1-25.72-34.77-7.86-10.84-15.56-21.79-23.42-32.81,19.18-21.29,38.06-42.25,57.62-63.96-13.32,0-25.3-.1-37.28,.11-1.69,.03-3.75,1.21-4.96,2.49-9.68,10.28-19.19,20.72-28.76,31.1-7.61,8.25-15.25,16.47-23.96,25.88V3.48h-32.4V137.7c-9.8,0-19.11,.12-28.41-.13-1.41-.04-3.14-1.58-4.09-2.89-6.25-8.59-12.26-17.34-18.48-25.95-3.03-4.2-6.34-8.22-9.84-12.72,12.42-4.73,20.69-12.64,24.64-24.59,4.05-12.29,4.2-24.8,1.02-37.25-2.52-9.87-7.77-18.47-17.3-22.54-8.26-3.54-17.29-6.72-26.14-7.19-23.41-1.25-46.9-.94-70.37-1.23-.45,0-.9,.26-1.84,.55V137.39h-62.51c47.27-31.84,40.7-88.24,14.77-114.66-29.22-29.77-80.89-30.59-110.59-.73-15.03,15.11-21.78,33.36-21.33,54.38,.56,26.41,13.43,45.98,35.25,60.94h-89.29c15.84-44.84,31.51-89.24,47.37-134.16-10.72,0-20.69,.16-30.65-.09-3.38-.08-4.85,.89-5.95,4.16-6.12,18.19-12.51,36.28-18.82,54.4-2.71,7.78-5.46,15.54-8.63,24.56-8.81-28.6-17.2-55.85-25.57-83.03-10.49,0-20.32,.1-30.13-.06-2.87-.05-3.97,.94-4.78,3.65-4.45,14.9-9.14,29.73-13.76,44.57-3.45,11.1-6.92,22.19-10.78,34.55-1.08-2.79-1.7-4.26-2.22-5.77C53.3,55.86,44.98,31.6,36.53,7.39c-.56-1.59-2.14-4-3.3-4.03-10.76-.31-21.53-.18-33.23-.18C15.93,48.33,31.6,92.76,47.5,137.85H1.11v8.69c23.84,0,47.3-.06,70.77,.06,2.98,.02,3.46-1.62,4.15-3.81,5.83-18.45,11.78-36.86,17.64-55.3,4.12-12.94,8.18-25.9,12.65-40.09,10.85,33.82,21.29,66.35,31.71,98.79H431.72v-44.45c7.21,0,13.99-.12,20.77,.11,1.16,.03,2.6,1.27,3.37,2.34,9.33,12.88,18.61,25.78,27.74,38.79,1.8,2.57,3.64,3.66,6.89,3.64,29.14-.14,58.28-.07,87.42-.09,1.44,0,2.88-.17,4.62-.28,0-12.14-.01-23.9,.02-35.66,0-1.46-.32-3.42,.46-4.31,4.53-5.17,9.34-10.08,14.1-15.14,5.04,6.23,9.85,11.91,14.36,17.83,8.55,11.21,17.05,22.47,25.3,33.91,1.99,2.75,4,3.75,7.34,3.73,26.98-.13,53.95-.07,80.92-.08,1.6,0,3.2-.15,5.32-.26v-44.55c5.05,0,9.62,.52,14.02-.12,6.81-.98,10.58,2.44,14.03,7.51,7.84,11.51,16.02,22.8,23.89,34.3,1.58,2.32,3.24,3.22,6.05,3.19,14.98-.13,29.97-.05,44.95-.08,1.26,0,12.93,.1,14.34,.1h40.6c33.95,0,49.41-21.7,49.41-41.85,0-26.63-23.96-36.21-31.93-39.38ZM284.95,118.5c-16.17-4.63-26.93-15.3-30.65-32.06-4.41-19.88,.79-37,16.61-49.95,19.58-16.04,49.69-8.91,61.77,14.04,4.29,8.13,6.07,15.04,6.13,23.76,.7,30.9-27.24,51.84-53.86,44.21Zm181.83-45.87c-11.4,.8-22.9,.18-34.77,.18V31.87c12.03,0,23.71-.7,35.26,.2,12.16,.94,16.85,7.04,16.87,19.14,.03,12.66-5.82,20.62-17.36,21.42Zm298.38,0c-11.39,.8-22.87,.17-34.69,.17V31.87c11.93,0,23.59-.71,35.13,.2,12.32,.96,16.77,6.99,16.64,19.63-.13,12.77-5.52,20.11-17.08,20.93Z"/></g></svg>